# Blender v3.0.0 OBJ File: ''
# www.blender.org
mtllib asteroidA.mtl
o Meteor_1_Cube.013
v -0.473196 0.156678 -0.204937
v -0.489922 -0.148771 -0.191420
v -0.606878 -0.008343 -0.107566
v 0.103127 -0.155624 0.502909
v 0.342600 -0.018395 0.410340
v 0.262387 0.013248 0.537951
v 0.508538 -0.046840 -0.139475
v 0.452842 -0.101143 -0.394888
v 0.426305 0.155277 -0.267934
v 0.501033 0.290898 0.143981
v 0.402807 0.324945 -0.089402
v 0.243415 0.467914 0.049752
v 0.297415 0.484363 -0.194614
v 0.070500 0.515204 -0.093159
v -0.227556 0.407019 -0.386401
v -0.402678 0.310821 -0.183057
v -0.275802 0.449138 -0.108769
v 0.223243 -0.260994 0.406604
v 0.070776 -0.445398 0.409290
v 0.299587 -0.403090 0.188459
v -0.421774 -0.033693 -0.446092
v 0.487674 0.178977 -0.041823
v -0.107641 -0.428971 -0.437426
v -0.349883 -0.251558 -0.327817
v -0.218753 -0.176243 -0.456111
v -0.416657 0.326223 0.125993
v -0.539258 0.047807 0.279092
v -0.373482 0.200368 0.335945
v 0.293069 0.129005 -0.519124
v 0.381598 -0.454798 -0.163399
v 0.140736 -0.438884 -0.271828
v 0.185215 -0.294410 -0.410600
v 0.060169 0.067164 -0.519573
v 0.116376 0.262065 -0.446359
v -0.230319 0.109232 0.475652
v -0.336721 -0.072305 0.418591
v 0.419204 -0.243505 -0.207601
v 0.461043 -0.258384 0.064836
v 0.072535 0.125597 0.517351
v 0.328211 0.217727 0.357602
v -0.031037 -0.280382 0.456744
v -0.155521 -0.123614 0.574234
v -0.226592 -0.348209 0.349495
v -0.142697 -0.462434 -0.237485
v -0.377966 -0.375645 -0.113506
v -0.357871 -0.369570 0.178508
v -0.518439 -0.154679 0.094003
v 0.050511 0.417778 -0.327069
v -0.095675 0.213283 -0.478694
v 0.109756 -0.489932 0.190672
v 0.036610 -0.530659 -0.077087
v -0.192873 -0.591456 -0.008516
v -0.137879 -0.486148 0.198814
v -0.585207 0.173925 0.023431
v -0.093129 0.517388 -0.112612
v 0.060822 0.562037 0.202040
v 0.228050 -0.478765 -0.043438
v -0.177805 0.319865 0.390228
v -0.241246 0.505354 0.229030
v 0.194672 -0.126646 -0.480083
v -0.040522 -0.127861 -0.516186
v 0.490976 0.097506 0.162141
v 0.522207 -0.022480 0.057416
v 0.029448 0.366664 0.388820
v -0.074332 0.239126 0.538451
v 0.290933 0.319117 -0.296118
v -0.479281 -0.237771 0.299908
v -0.204259 0.056371 -0.494799
v 0.482275 -0.194941 0.310484
v 0.287383 0.426478 0.303758
v -0.331224 0.187965 -0.377533
vt 0.100865 0.400350
vt 0.099809 0.399915
vt 0.100313 0.399848
vt 0.104254 0.395268
vt 0.103421 0.397583
vt 0.103383 0.397558
vt 0.094970 0.364926
vt 0.094671 0.365051
vt 0.094746 0.364775
vt 0.093269 0.362258
vt 0.093154 0.362328
vt 0.093090 0.362131
vt 0.110932 0.348921
vt 0.110730 0.348948
vt 0.110565 0.349243
vt 0.102336 0.399704
vt 0.102118 0.398383
vt 0.102380 0.399165
vt 0.085306 0.380547
vt 0.085374 0.380632
vt 0.085199 0.380484
vt 0.100104 0.401182
vt 0.098501 0.398296
vt 0.098022 0.398482
vt 0.097979 0.397877
vt 0.098741 0.393234
vt 0.099016 0.394567
vt 0.098919 0.394899
vt 0.102316 0.397286
vt 0.103429 0.394356
vt 0.102498 0.394672
vt 0.096812 0.396461
vt 0.096819 0.395703
vt 0.097430 0.396355
vt 0.096431 0.394462
vt 0.097691 0.394280
vt 0.097105 0.394732
vt 0.098183 0.396061
vt 0.098567 0.395006
vt 0.102795 0.395751
vt 0.103535 0.395432
vt 0.096461 0.394746
vt 0.096065 0.394485
vt 0.092015 0.364793
vt 0.092360 0.364827
vt 0.092477 0.365165
vt 0.093845 0.364979
vt 0.094107 0.365143
vt 0.093867 0.365375
vt 0.094207 0.365156
vt 0.109148 0.346868
vt 0.108573 0.346580
vt 0.108435 0.348549
vt 0.108618 0.348663
vt 0.103023 0.381739
vt 0.103022 0.381739
vt 0.102988 0.381726
vt 0.096752 0.397670
vt 0.096551 0.399473
vt 0.098959 0.395243
vt 0.099025 0.395139
vt 0.109398 0.347045
vt 0.109359 0.347261
vt 0.110835 0.357923
vt 0.110757 0.357844
vt 0.110824 0.357863
vt 0.110810 0.347926
vt 0.110342 0.348240
vt 0.110478 0.347570
vt 0.110322 0.349951
vt 0.110237 0.349768
vt 0.110274 0.349736
vt 0.102432 0.399986
vt 0.101136 0.402206
vt 0.101945 0.397622
vt 0.110295 0.348925
vt 0.110897 0.348505
vt 0.110959 0.348253
vt 0.111097 0.347958
vt 0.111112 0.348252
vt 0.095527 0.361185
vt 0.095455 0.361760
vt 0.095358 0.361059
vt 0.087954 0.379069
vt 0.086005 0.383847
vt 0.086068 0.383709
vt 0.097599 0.395385
vt 0.098570 0.395157
vt 0.097704 0.398984
vt 0.097212 0.399123
vt 0.093679 0.365005
vt 0.088096 0.379373
vt 0.086911 0.381922
vt 0.087175 0.382035
vt 0.097736 0.393498
vt 0.097791 0.394304
vt 0.097435 0.394376
vt 0.100501 0.382001
vt 0.100856 0.381800
vt 0.100920 0.382059
vt 0.084731 0.395816
vt 0.084541 0.396096
vt 0.085347 0.396545
vt 0.085574 0.396605
vt 0.085588 0.396466
vt 0.082526 0.374554
vt 0.082413 0.374362
vt 0.082566 0.374287
vt 0.082396 0.374124
vt 0.094688 0.350472
vt 0.093010 0.350264
vt 0.094415 0.350469
vt 0.109721 0.349703
vt 0.109477 0.349663
vt 0.109621 0.349650
vt 0.081499 0.370122
vt 0.081596 0.370207
vt 0.081549 0.370404
vt 0.092709 0.363788
vt 0.092674 0.364022
vt 0.092427 0.363993
vt 0.091510 0.362393
vt 0.091453 0.362497
vt 0.091348 0.362317
vt 0.060576 0.375493
vt 0.061022 0.375727
vt 0.059861 0.375571
vt 0.112520 0.367880
vt 0.112496 0.367834
vt 0.112588 0.367834
vt 0.113162 0.367676
vt 0.111985 0.366859
vt 0.113229 0.367658
vt 0.087768 0.407115
vt 0.087692 0.407345
vt 0.087643 0.407270
vt 0.095456 0.363049
vt 0.095385 0.363047
vt 0.095431 0.362979
vt 0.087438 0.382214
vt 0.095438 0.360742
vt 0.110136 0.348402
vt 0.097746 0.398176
vt 0.103551 0.396332
vt 0.104492 0.395101
vt 0.092340 0.362242
vt 0.092275 0.362182
vt 0.092658 0.362252
vt 0.098968 0.395828
vt 0.102846 0.396921
vt 0.102219 0.396269
vt 0.092230 0.365416
vt 0.092631 0.365677
vt 0.092728 0.364866
vt 0.092704 0.365044
vt 0.102664 0.394081
vt 0.098349 0.399189
vt 0.100979 0.399164
vt 0.100584 0.398996
vt 0.100820 0.398839
vt 0.099594 0.401153
vt 0.099859 0.401593
vt 0.082838 0.376746
vt 0.082436 0.377107
vt 0.082410 0.376727
vt 0.087219 0.382310
vt 0.094013 0.366358
vt 0.094022 0.366416
vt 0.093927 0.366458
vt 0.094841 0.365305
vt 0.093932 0.362621
vt 0.093549 0.362540
vt 0.093792 0.362443
vt 0.096713 0.397454
vt 0.102739 0.392329
vt 0.102629 0.392441
vt 0.101828 0.399658
vt 0.095497 0.362106
vt 0.095578 0.361856
vt 0.093297 0.362206
vt 0.095288 0.360853
vt 0.101061 0.399590
vt 0.100176 0.401764
vt 0.097019 0.400135
vt 0.086506 0.393650
vt 0.089454 0.394416
vt 0.089200 0.394373
vt 0.100916 0.385707
vt 0.100659 0.385884
vt 0.100619 0.385298
vt 0.100535 0.381770
vt 0.089269 0.394873
vt 0.085656 0.396516
vt 0.084716 0.396050
vt 0.100301 0.385616
vt 0.100327 0.385239
vt 0.100851 0.385206
vt 0.103523 0.384877
vt 0.103383 0.385136
vt 0.103328 0.384706
vt 0.101329 0.380841
vt 0.100901 0.380935
vt 0.081543 0.371848
vt 0.081417 0.371926
vt 0.081357 0.371857
vt 0.109461 0.349938
vt 0.109514 0.349193
vt 0.109649 0.349622
vt 0.109247 0.349485
vt 0.109296 0.349576
vt 0.102318 0.386559
vt 0.089487 0.395011
vt 0.085444 0.394814
vt 0.085112 0.394820
vt 0.085502 0.394710
vt 0.062787 0.376635
vt 0.063116 0.376786
vt 0.063108 0.376883
vt 0.092364 0.363758
vt 0.059640 0.375414
vt 0.059710 0.375481
vt 0.077042 0.378773
vt 0.076807 0.378786
vt 0.076886 0.378499
vt 0.090367 0.364708
vt 0.090318 0.364304
vt 0.090514 0.364272
vt 0.085266 0.388840
vt 0.085079 0.388809
vt 0.085091 0.388747
vt 0.117755 0.380202
vt 0.118611 0.379188
vt 0.118671 0.379202
vt 0.117652 0.380142
vt 0.102624 0.393940
vt 0.102898 0.394386
vt 0.102648 0.394350
vt 0.087845 0.379196
vt 0.102471 0.386754
vt 0.091335 0.362536
vn -0.5857 -0.0038 -0.8105
vn 0.5673 -0.6420 0.5158
vn 0.9416 0.2225 -0.2526
vn 0.5941 0.7931 -0.1343
vn 0.1801 0.9780 0.1056
vn -0.6556 0.7213 -0.2234
vn 0.6405 -0.5214 0.5638
vn -0.9698 0.0425 -0.2403
vn 0.8670 0.4132 -0.2786
vn -0.5697 -0.3068 -0.7624
vn -0.6785 0.5601 0.4753
vn 0.8234 0.3179 -0.4700
vn 0.2497 -0.7097 -0.6588
vn -0.0977 0.3745 -0.9221
vn -0.6440 0.1411 0.7519
vn 0.9656 -0.2052 -0.1595
vn 0.2653 0.5883 0.7639
vn -0.1635 -0.6715 0.7228
vn -0.6570 -0.4192 0.6267
vn -0.5147 -0.7110 -0.4791
vn -0.6412 -0.7306 -0.2347
vn -0.8118 -0.5799 0.0679
vn 0.7479 -0.6091 0.2638
vn -0.0173 0.6034 -0.7972
vn 0.0633 -0.9861 -0.1539
vn 0.4051 -0.8791 0.2513
vn 0.2751 -0.9588 0.0707
vn -0.4418 -0.7471 0.4967
vn -0.4513 -0.7745 0.4433
vn 0.1604 0.5114 -0.8443
vn -0.7992 0.4258 -0.4242
vn 0.0317 0.9873 -0.1556
vn 0.0149 -0.9840 -0.1775
vn 0.0253 -0.9094 -0.4151
vn 0.3632 0.9220 -0.1344
vn -0.3466 0.9166 -0.1993
vn -0.4906 0.4699 0.7338
vn 0.1515 -0.0953 -0.9838
vn 0.9779 0.1990 0.0637
vn -0.3121 -0.4354 0.8444
vn 0.4759 0.4785 0.7379
vn -0.0464 -0.3024 0.9520
vn 0.2196 -0.2924 -0.9307
vn 0.7277 0.5254 -0.4409
vn 0.7356 0.5367 -0.4133
vn -0.7770 -0.6210 -0.1028
vn -0.4311 -0.7932 0.4301
vn 0.4119 -0.8961 0.1654
vn 0.2478 -0.9656 0.0792
vn -0.0665 0.6951 0.7159
vn -0.0988 0.1690 -0.9807
vn 0.9184 -0.3615 -0.1608
vn 0.3987 -0.6984 0.5944
vn -0.7620 -0.5121 -0.3964
vn 0.4940 0.8677 0.0560
vn 0.4678 -0.2433 0.8497
vn -0.4003 0.3634 -0.8412
vn 0.3284 0.4894 0.8079
vn 0.0570 0.9195 -0.3888
vn 0.0485 0.9179 -0.3938
vn 0.0487 0.9181 -0.3934
vn 0.2961 -0.9153 -0.2730
vn -0.3582 -0.7841 0.5069
vn 0.9882 0.1278 -0.0844
vn 0.1723 -0.4995 0.8490
vn -0.0448 0.9236 -0.3808
vn -0.0945 0.0315 -0.9950
vn 0.9387 0.2062 -0.2764
vn 0.3236 -0.3776 -0.8676
vn -0.1122 -0.3200 0.9407
vn -0.1463 0.3455 0.9270
vn 0.6868 0.3046 0.6600
vn 0.8530 0.1627 0.4958
vn -0.7364 0.5448 0.4011
vn 0.3257 -0.2640 -0.9079
vn 0.5413 -0.7134 -0.4450
vn 0.6642 -0.2645 -0.6992
vn 0.8632 0.4026 -0.3046
vn 0.9977 -0.0555 -0.0383
vn -0.4747 0.1961 0.8580
vn -0.9797 -0.1804 0.0871
vn -0.4127 -0.5360 -0.7365
vn -0.6187 0.4228 0.6622
vn -0.6259 0.1249 0.7698
vn 0.2634 -0.0209 0.9645
vn -0.2818 -0.1403 -0.9491
vn 0.2396 0.2862 0.9277
vn -0.1783 0.8065 0.5638
vn -0.7914 -0.6044 -0.0916
vn 0.9189 -0.3757 -0.1205
vn -0.8788 -0.4671 -0.0975
vn -0.2676 -0.1875 -0.9451
vn 0.3075 -0.9285 0.2081
vn -0.7731 -0.6308 0.0663
vn -0.7544 0.4829 0.4446
vn -0.4039 0.1546 -0.9017
vn -0.6461 0.7603 -0.0671
vn -0.7171 0.6938 -0.0670
vn -0.0085 -0.9801 0.1982
vn 0.5561 0.8302 0.0392
vn 0.0013 -0.8917 0.4526
vn 0.0584 0.9198 -0.3881
vn -0.7666 -0.4828 -0.4233
vn -0.8091 0.4033 -0.4273
vn -0.1553 -0.1526 -0.9760
vn 0.9677 -0.2515 -0.0187
vn -0.7852 0.3509 -0.5102
vn 0.7474 0.6311 0.2076
vn -0.9747 -0.1970 0.1059
vn 0.8069 0.1752 0.5642
vn 0.3770 -0.6994 -0.6073
vn -0.5922 -0.0658 0.8031
vn 0.8479 0.2530 -0.4660
vn 0.2941 0.7287 -0.6184
vn 0.7638 0.2737 0.5845
vn 0.9759 0.0750 0.2051
vn 0.7741 0.0192 0.6328
vn -0.7385 0.4135 -0.5325
vn 0.1419 -0.3856 -0.9117
vn 0.3060 0.4895 -0.8165
vn -0.1883 0.9810 -0.0471
vn -0.3497 0.9293 -0.1189
vn -0.7001 0.7125 -0.0470
vn -0.7262 0.4558 -0.5147
vn -0.3253 -0.3499 0.8785
vn 0.3556 0.6585 -0.6632
vn 0.4042 -0.3217 0.8562
vn 0.0665 0.3340 -0.9402
vn 0.3858 -0.2037 0.8998
vn -0.4754 0.4298 0.7676
vn -0.9384 -0.1211 0.3238
vn 0.0816 0.6818 0.7269
vn -0.5198 -0.6905 -0.5030
vn 0.0905 -0.8760 -0.4738
vn -0.1465 -0.0666 0.9870
vn 0.7112 -0.6931 0.1175
vn 0.0466 -0.1683 -0.9846
vn -0.1355 0.6231 0.7703
vn -0.3565 0.4059 -0.8415
vn 0.9671 -0.2519 -0.0360
usemtl Planets_Material
s 1
f 1/1/1 2/2/1 3/3/1
f 4/4/2 5/5/2 6/6/2
f 7/7/3 8/8/3 9/9/3
f 10/10/4 11/11/4 12/12/4
f 12/13/5 13/14/5 14/15/5
f 15/16/6 16/17/6 17/18/6
f 18/19/7 19/20/7 20/21/7
f 2/2/8 1/1/8 21/22/8
f 11/23/9 22/24/9 9/25/9
f 23/26/10 24/27/10 25/28/10
f 26/29/11 27/30/11 28/31/11
f 9/32/12 8/33/12 29/34/12
f 30/35/13 31/36/13 32/37/13
f 33/38/14 34/39/14 29/34/14
f 35/40/15 28/31/15 36/41/15
f 37/42/16 38/43/16 30/35/16
f 39/44/17 6/45/17 40/46/17
f 41/47/18 42/48/18 43/49/18
f 42/48/19 36/50/19 43/49/19
f 44/51/20 45/52/20 24/53/20
f 24/53/21 23/54/21 44/51/21
f 45/55/22 46/56/22 47/57/22
f 20/58/23 30/35/23 38/59/23
f 48/60/24 34/39/24 49/61/24
f 44/51/25 23/62/25 31/63/25
f 20/64/26 19/65/26 50/66/26
f 51/67/27 50/68/27 52/69/27
f 46/70/28 52/69/28 53/71/28
f 53/71/29 43/72/29 46/70/29
f 48/73/30 49/74/30 15/16/30
f 1/1/31 54/75/31 16/17/31
f 14/15/32 55/76/32 56/77/32
f 57/78/33 31/79/33 30/80/33
f 44/51/34 31/79/34 51/67/34
f 56/77/35 12/13/35 14/15/35
f 15/81/36 17/82/36 55/83/36
f 58/84/37 59/85/37 28/86/37
f 60/87/38 61/88/38 33/38/38
f 62/89/39 63/90/39 22/24/39
f 43/49/40 19/91/40 41/47/40
f 64/92/41 65/93/41 39/94/41
f 41/95/42 19/96/42 4/97/42
f 32/98/43 23/99/43 61/100/43
f 29/101/44 66/102/44 9/103/44
f 11/104/45 9/103/45 66/105/45
f 47/106/46 46/107/46 67/108/46
f 46/107/47 43/109/47 67/108/47
f 57/110/48 20/111/48 50/112/48
f 57/113/49 50/114/49 51/115/49
f 59/116/50 64/117/50 56/118/50
f 33/119/51 68/120/51 49/121/51
f 37/122/52 7/123/52 38/124/52
f 69/125/53 18/126/53 20/127/53
f 24/128/54 45/129/54 2/130/54
f 70/131/55 12/132/55 56/133/55
f 5/134/56 4/135/56 18/136/56
f 49/137/57 68/138/57 71/139/57
f 40/140/58 64/92/58 39/94/58
f 48/141/59 15/81/60 55/83/61
f 31/79/62 57/78/62 51/67/62
f 53/71/63 19/142/63 43/72/63
f 22/24/64 63/90/64 7/143/64
f 4/4/65 42/144/65 41/145/65
f 48/146/66 14/147/66 13/148/66
f 61/88/67 68/149/67 33/38/67
f 9/25/68 22/24/68 7/143/68
f 32/37/69 60/87/69 8/33/69
f 35/40/70 39/150/70 65/151/70
f 42/144/71 39/150/71 35/40/71
f 70/152/72 40/46/72 10/153/72
f 40/46/73 6/154/73 5/155/73
f 54/156/74 27/30/74 26/29/74
f 8/33/75 60/87/75 29/34/75
f 32/37/76 8/33/76 37/42/76
f 37/42/77 30/35/77 32/37/77
f 10/157/78 22/24/78 11/23/78
f 10/157/79 62/89/79 22/24/79
f 27/30/80 36/41/80 28/31/80
f 54/158/81 47/159/81 27/160/81
f 24/161/82 21/22/82 25/162/82
f 35/163/83 65/164/83 58/165/83
f 36/41/84 42/144/84 35/40/84
f 42/144/85 4/4/85 39/150/85
f 68/149/86 61/88/86 25/28/86
f 70/166/87 64/92/87 40/140/87
f 58/84/88 65/93/88 64/92/88
f 47/167/89 3/168/89 2/169/89
f 7/7/90 37/170/90 8/8/90
f 45/171/91 47/172/91 2/173/91
f 25/28/92 61/88/92 23/26/92
f 20/58/93 57/174/93 30/35/93
f 46/70/94 45/52/94 52/69/94
f 26/175/95 28/31/95 59/176/95
f 71/177/96 15/16/96 49/74/96
f 26/29/97 16/17/97 54/75/97
f 26/178/98 17/82/98 16/179/98
f 50/68/99 19/142/99 53/71/99
f 12/12/100 70/180/100 10/10/100
f 53/71/101 52/69/101 50/68/101
f 48/141/59 55/83/61 14/181/102
f 21/22/103 24/161/103 2/2/103
f 3/3/104 54/182/104 1/1/104
f 21/22/105 68/183/105 25/162/105
f 69/184/106 38/59/106 63/90/106
f 15/16/107 71/177/107 16/17/107
f 12/12/108 11/11/108 13/148/108
f 47/185/109 67/186/109 27/187/109
f 40/188/110 5/189/110 62/190/110
f 31/191/111 23/99/111 32/98/111
f 67/186/112 36/192/112 27/187/112
f 66/105/113 13/193/113 11/104/113
f 29/101/114 34/194/114 66/102/114
f 69/195/115 62/190/115 5/189/115
f 62/190/116 69/195/116 63/196/116
f 62/190/117 10/197/117 40/188/117
f 16/198/118 71/199/118 1/200/118
f 61/201/119 60/202/119 32/98/119
f 13/203/120 66/204/120 48/205/120
f 55/206/121 59/207/121 56/208/121
f 17/209/122 59/207/122 55/206/122
f 59/207/123 17/209/123 26/210/123
f 21/211/124 1/200/124 71/199/124
f 36/192/125 67/186/125 43/212/125
f 48/213/126 66/214/126 34/215/126
f 18/216/127 4/217/127 19/218/127
f 34/219/128 33/119/128 49/121/128
f 18/220/129 69/125/129 5/221/129
f 28/222/130 35/223/130 58/224/130
f 54/225/131 3/226/131 47/227/131
f 64/228/132 70/229/132 56/230/132
f 44/231/133 52/232/133 45/233/133
f 52/232/134 44/231/134 51/234/134
f 4/4/135 6/6/135 39/150/135
f 38/235/136 69/236/136 20/237/136
f 60/87/137 33/38/137 29/34/137
f 64/92/138 59/238/138 58/84/138
f 21/211/139 71/199/139 68/239/139
f 38/124/140 7/123/140 63/240/140
