# Blender v3.0.0 OBJ File: ''
# www.blender.org
mtllib asteroidB.mtl
o Meteor_2_Cube.014
v -0.459138 0.148673 -0.203128
v -0.477262 -0.141232 -0.194272
v -0.522469 0.000712 -0.089597
v 0.116158 -0.176510 0.561604
v 0.376148 -0.021003 0.437660
v 0.201260 0.016688 0.425622
v 0.508027 -0.047546 -0.150027
v 0.432238 -0.097109 -0.393230
v 0.405412 0.147791 -0.270900
v 0.486010 0.286164 0.132015
v 0.333572 0.280072 -0.080471
v 0.249624 0.488088 0.040212
v 0.335654 0.546808 -0.231087
v 0.073385 0.596766 -0.121082
v -0.251215 0.441051 -0.431910
v -0.356371 0.270643 -0.171961
v -0.285501 0.455783 -0.119889
v 0.225729 -0.268108 0.408892
v 0.080435 -0.531099 0.477452
v 0.349041 -0.478966 0.210698
v -0.402579 -0.032896 -0.428886
v 0.507735 0.184943 -0.056276
v -0.110233 -0.419891 -0.438457
v -0.333992 -0.234349 -0.320457
v -0.208069 -0.165095 -0.426073
v -0.450745 0.351104 0.124035
v -0.500496 0.040134 0.241484
v -0.423500 0.230416 0.377378
v 0.240982 0.097484 -0.430411
v 0.421411 -0.508622 -0.192476
v 0.112190 -0.344682 -0.229518
v 0.170039 -0.280514 -0.398957
v 0.054658 0.061314 -0.477340
v 0.101434 0.220281 -0.396924
v -0.232382 0.107254 0.460451
v -0.311705 -0.068094 0.366781
v 0.355613 -0.215977 -0.193774
v 0.545754 -0.303677 0.060181
v 0.057439 0.107892 0.444882
v 0.261122 0.183958 0.270706
v -0.039792 -0.297942 0.477082
v -0.179319 -0.139542 0.639724
v -0.276998 -0.420155 0.411926
v -0.117506 -0.369633 -0.206170
v -0.469584 -0.449575 -0.149504
v -0.293190 -0.289851 0.140804
v -0.519804 -0.153531 0.083992
v 0.057720 0.488801 -0.396711
v -0.089992 0.178118 -0.393403
v 0.081280 -0.401396 0.162036
v 0.015672 -0.455122 -0.072387
v -0.197783 -0.591391 -0.018293
v -0.152568 -0.520241 0.206541
v -0.568624 0.164324 0.013099
v -0.094709 0.492109 -0.116868
v 0.062963 0.616821 0.209149
v 0.245512 -0.566142 -0.050719
v -0.139455 0.254262 0.296206
v -0.204900 0.428050 0.184452
v 0.195226 -0.134240 -0.513070
v -0.043958 -0.120246 -0.481385
v 0.438940 0.091193 0.136287
v 0.548894 -0.023491 0.048998
v 0.032289 0.415890 0.442302
v -0.086551 0.264667 0.596757
v 0.326448 0.357872 -0.349158
v -0.526443 -0.264449 0.316408
v -0.212905 0.058013 -0.518721
v 0.538811 -0.217960 0.339822
v 0.328342 0.490345 0.352000
v -0.333458 0.185814 -0.384148
vt 0.367498 0.133716
vt 0.366442 0.133281
vt 0.366947 0.133215
vt 0.370888 0.128634
vt 0.370055 0.130949
vt 0.370017 0.130924
vt 0.361603 0.098292
vt 0.361305 0.098417
vt 0.361379 0.098141
vt 0.359903 0.095624
vt 0.359787 0.095695
vt 0.359724 0.095497
vt 0.377566 0.082287
vt 0.377363 0.082315
vt 0.377199 0.082609
vt 0.368970 0.133071
vt 0.368752 0.131749
vt 0.369014 0.132531
vt 0.351940 0.113913
vt 0.352007 0.113999
vt 0.351833 0.113850
vt 0.366738 0.134549
vt 0.365135 0.131662
vt 0.364656 0.131849
vt 0.364613 0.131243
vt 0.365375 0.126601
vt 0.365650 0.127934
vt 0.365553 0.128265
vt 0.368950 0.130652
vt 0.370062 0.127722
vt 0.369132 0.128038
vt 0.363446 0.129827
vt 0.363453 0.129069
vt 0.364064 0.129721
vt 0.363064 0.127829
vt 0.364325 0.127646
vt 0.363739 0.128098
vt 0.364817 0.129428
vt 0.365201 0.128372
vt 0.369429 0.129117
vt 0.370169 0.128799
vt 0.363095 0.128112
vt 0.362698 0.127852
vt 0.358649 0.098159
vt 0.358994 0.098193
vt 0.359110 0.098531
vt 0.360479 0.098345
vt 0.360741 0.098510
vt 0.360500 0.098741
vt 0.360841 0.098522
vt 0.375782 0.080234
vt 0.375207 0.079946
vt 0.375069 0.081915
vt 0.375252 0.082030
vt 0.369656 0.115106
vt 0.369655 0.115105
vt 0.369622 0.115092
vt 0.363386 0.131036
vt 0.363184 0.132839
vt 0.365593 0.128609
vt 0.365659 0.128506
vt 0.376032 0.080411
vt 0.375992 0.080627
vt 0.377469 0.091289
vt 0.377391 0.091210
vt 0.377457 0.091229
vt 0.377443 0.081292
vt 0.376975 0.081607
vt 0.377112 0.080936
vt 0.376956 0.083317
vt 0.376871 0.083134
vt 0.376908 0.083102
vt 0.369065 0.133352
vt 0.367769 0.135573
vt 0.368579 0.130988
vt 0.376928 0.082291
vt 0.377530 0.081871
vt 0.377592 0.081619
vt 0.377731 0.081324
vt 0.377746 0.081618
vt 0.362161 0.094551
vt 0.362089 0.095126
vt 0.361992 0.094425
vt 0.354588 0.112435
vt 0.352639 0.117213
vt 0.352702 0.117075
vt 0.364233 0.128752
vt 0.365204 0.128524
vt 0.364338 0.132350
vt 0.363846 0.132489
vt 0.360313 0.098371
vt 0.354730 0.112739
vt 0.353544 0.115289
vt 0.353809 0.115402
vt 0.364370 0.126864
vt 0.364424 0.127670
vt 0.364069 0.127743
vt 0.367135 0.115367
vt 0.367490 0.115166
vt 0.367553 0.115426
vt 0.351364 0.129182
vt 0.351175 0.129462
vt 0.351981 0.129911
vt 0.352207 0.129971
vt 0.352222 0.129832
vt 0.349160 0.107920
vt 0.349047 0.107728
vt 0.349200 0.107653
vt 0.349030 0.107490
vt 0.361321 0.083838
vt 0.359644 0.083630
vt 0.361049 0.083836
vt 0.376354 0.083069
vt 0.376111 0.083029
vt 0.376255 0.083016
vt 0.348133 0.103488
vt 0.348230 0.103573
vt 0.348183 0.103770
vt 0.359342 0.097154
vt 0.359308 0.097388
vt 0.359061 0.097360
vt 0.358143 0.095759
vt 0.358087 0.095863
vt 0.357981 0.095683
vt 0.327209 0.108859
vt 0.327656 0.109094
vt 0.326495 0.108937
vt 0.379153 0.101246
vt 0.379130 0.101200
vt 0.379221 0.101200
vt 0.379795 0.101042
vt 0.378619 0.100225
vt 0.379863 0.101024
vt 0.354402 0.140481
vt 0.354326 0.140711
vt 0.354276 0.140637
vt 0.362090 0.096415
vt 0.362018 0.096414
vt 0.362065 0.096346
vt 0.354072 0.115580
vt 0.362072 0.094108
vt 0.376770 0.081768
vt 0.364380 0.131542
vt 0.370185 0.129698
vt 0.371126 0.128468
vt 0.358974 0.095608
vt 0.358909 0.095548
vt 0.359292 0.095618
vt 0.365602 0.129194
vt 0.369480 0.130288
vt 0.368853 0.129635
vt 0.358864 0.098782
vt 0.359264 0.099043
vt 0.359361 0.098232
vt 0.359338 0.098410
vt 0.369298 0.127447
vt 0.364983 0.132555
vt 0.367613 0.132531
vt 0.367218 0.132363
vt 0.367454 0.132205
vt 0.366228 0.134519
vt 0.366493 0.134959
vt 0.349471 0.110112
vt 0.349070 0.110473
vt 0.349044 0.110093
vt 0.353853 0.115676
vt 0.360647 0.099724
vt 0.360656 0.099782
vt 0.360561 0.099824
vt 0.361475 0.098671
vt 0.360566 0.095988
vt 0.360183 0.095907
vt 0.360426 0.095809
vt 0.363347 0.130820
vt 0.369372 0.125695
vt 0.369263 0.125807
vt 0.368462 0.133024
vt 0.362131 0.095472
vt 0.362212 0.095222
vt 0.359930 0.095573
vt 0.361922 0.094219
vt 0.367695 0.132956
vt 0.366810 0.135131
vt 0.363653 0.133501
vt 0.353140 0.127017
vt 0.356088 0.127782
vt 0.355833 0.127739
vt 0.367550 0.119073
vt 0.367293 0.119250
vt 0.367252 0.118664
vt 0.367168 0.115136
vt 0.355903 0.128239
vt 0.352290 0.129882
vt 0.351349 0.129416
vt 0.366935 0.118982
vt 0.366961 0.118605
vt 0.367485 0.118572
vt 0.370157 0.118243
vt 0.370017 0.118503
vt 0.369961 0.118072
vt 0.367963 0.114207
vt 0.367535 0.114301
vt 0.348176 0.105214
vt 0.348051 0.105293
vt 0.347990 0.105224
vt 0.376094 0.083304
vt 0.376147 0.082559
vt 0.376282 0.082989
vt 0.375881 0.082851
vt 0.375930 0.082942
vt 0.368952 0.119925
vt 0.356121 0.128377
vt 0.352078 0.128180
vt 0.351745 0.128187
vt 0.352136 0.128076
vt 0.329420 0.110002
vt 0.329750 0.110152
vt 0.329742 0.110249
vt 0.358998 0.097124
vt 0.326274 0.108781
vt 0.326343 0.108848
vt 0.343676 0.112139
vt 0.343441 0.112152
vt 0.343519 0.111865
vt 0.357001 0.098074
vt 0.356952 0.097670
vt 0.357148 0.097638
vt 0.351900 0.122207
vt 0.351713 0.122175
vt 0.351725 0.122113
vt 0.384388 0.113568
vt 0.385245 0.112555
vt 0.385305 0.112568
vt 0.384286 0.113508
vt 0.369258 0.127306
vt 0.369531 0.127752
vt 0.369282 0.127717
vt 0.354479 0.112562
vt 0.369105 0.120120
vt 0.357969 0.095902
vn -0.8947 0.0417 -0.4446
vn -0.8950 0.0424 -0.4440
vn -0.8910 0.0338 -0.4527
vn 0.0627 0.5558 0.8289
vn 0.9034 0.2667 -0.3359
vn 0.6675 0.5564 -0.4948
vn 0.2953 0.9101 0.2906
vn -0.9157 0.3839 -0.1187
vn 0.7088 -0.2166 0.6714
vn -0.9582 0.0513 -0.2813
vn 0.4845 0.7931 -0.3692
vn 0.4845 0.7930 -0.3694
vn 0.4845 0.7934 -0.3684
vn -0.5718 -0.1807 -0.8002
vn -0.9491 0.2322 0.2127
vn 0.5636 0.4177 -0.7127
vn -0.3795 -0.8148 -0.4382
vn 0.1466 0.4118 -0.8994
vn -0.5040 -0.2184 0.8356
vn 0.8162 0.1811 -0.5486
vn 0.4313 0.5251 0.7337
vn 0.1307 -0.6519 0.7470
vn -0.9027 -0.0340 0.4289
vn 0.0176 -0.6287 -0.7775
vn -0.5810 -0.7991 0.1547
vn -0.5098 -0.5844 0.6313
vn 0.7274 -0.6624 0.1793
vn -0.0179 -0.0021 -0.9998
vn 0.1269 -0.9687 0.2136
vn -0.1949 -0.9069 -0.3735
vn 0.5448 -0.8377 0.0395
vn -0.8488 -0.4305 0.3069
vn -0.8042 -0.5530 -0.2177
vn 0.1235 -0.0693 -0.9899
vn -0.6573 0.6509 -0.3799
vn -0.6576 0.6500 -0.3808
vn -0.6594 0.6454 -0.3854
vn -0.5285 0.8462 -0.0681
vn -0.2940 -0.7013 -0.6494
vn 0.0328 -0.8271 -0.5612
vn 0.5467 0.8367 -0.0336
vn -0.1856 0.9804 -0.0667
vn 0.1788 0.5789 0.7956
vn -0.1256 0.0902 -0.9880
vn 0.7875 0.3946 0.4735
vn -0.2115 -0.1075 0.9715
vn 0.7578 0.0673 0.6490
vn -0.3554 -0.1818 0.9169
vn 0.2278 -0.1873 -0.9555
vn 0.6971 -0.0051 -0.7170
vn 0.9218 0.3782 0.0851
vn -0.3947 -0.8248 -0.4049
vn -0.3795 -0.8425 -0.3823
vn -0.3218 -0.8526 0.4118
vn -0.4367 -0.8425 0.3153
vn -0.5250 0.6776 0.5149
vn 0.1063 0.6637 -0.7404
vn 0.6491 -0.4232 -0.6321
vn 0.2630 -0.5746 0.7750
vn -0.6989 -0.1198 -0.7051
vn 0.4820 0.8668 -0.1280
vn 0.5864 -0.4364 0.6825
vn -0.0034 0.7236 -0.6902
vn 0.6361 0.0584 0.7694
vn -0.1422 0.9858 -0.0891
vn -0.2753 -0.6988 -0.6602
vn -0.3282 -0.9121 0.2457
vn 0.9738 0.0860 -0.2104
vn 0.1133 -0.6615 0.7414
vn 0.0238 0.9304 -0.3658
vn 0.1533 -0.0613 -0.9863
vn 0.8750 0.1820 -0.4487
vn 0.4340 -0.5994 -0.6726
vn 0.0410 -0.6755 0.7362
vn 0.0419 0.5931 0.8041
vn 0.5991 -0.3255 0.7315
vn 0.0906 0.6590 0.7466
vn -0.8598 0.2950 0.4169
vn 0.4093 0.2338 -0.8819
vn 0.5578 -0.7894 -0.2562
vn 0.7077 0.1561 -0.6891
vn 0.4844 0.7927 -0.3702
vn 0.9473 -0.2237 0.2295
vn -0.6337 -0.2631 0.7275
vn -0.9669 -0.0958 0.2363
vn -0.3516 -0.5337 -0.7691
vn -0.7765 0.6196 0.1152
vn -0.8740 0.1482 0.4627
vn 0.2807 0.4134 0.8662
vn -0.2007 -0.3794 -0.9032
vn 0.3480 -0.3110 0.8844
vn -0.7273 0.6783 0.1045
vn -0.9686 -0.1930 -0.1566
vn 0.7506 -0.6530 -0.1008
vn -0.9871 -0.0468 -0.1530
vn -0.3015 -0.0695 -0.9509
vn 0.4076 -0.9025 0.1395
vn -0.5756 -0.5166 0.6339
vn -0.3644 0.8249 0.4322
vn -0.0428 -0.1704 -0.9844
vn -0.6595 0.6453 -0.3857
vn -0.8244 0.4217 -0.3775
vn 0.3698 -0.8596 -0.3525
vn 0.6780 0.7136 -0.1764
vn 0.4725 -0.8631 0.1781
vn -0.5113 0.8097 -0.2881
vn -0.7324 -0.4988 -0.4635
vn -0.8907 0.0333 -0.4534
vn -0.2430 -0.3765 -0.8940
vn 0.9996 -0.0101 0.0279
vn -0.9418 0.2646 -0.2075
vn 0.9256 0.1806 0.3326
vn -0.9960 0.0882 0.0136
vn 0.6377 0.6690 0.3819
vn 0.4580 -0.8718 -0.1738
vn -0.4319 0.2500 0.8666
vn 0.9990 -0.0272 -0.0344
vn 0.0257 0.2901 -0.9567
vn 0.7958 0.4907 0.3549
vn 0.7999 0.4882 0.3491
vn 0.8003 0.4879 0.3484
vn 0.7950 0.4912 0.3560
vn 0.5593 -0.1170 0.8207
vn -0.6766 0.6557 -0.3352
vn -0.1397 -0.5940 -0.7922
vn 0.3737 0.4784 -0.7947
vn -0.5735 0.8184 -0.0357
vn -0.1874 0.9725 0.1382
vn -0.3326 0.9271 0.1726
vn -0.8011 0.3522 -0.4839
vn -0.3059 0.0914 0.9477
vn 0.1890 0.0316 -0.9815
vn 0.7212 -0.2279 0.6542
vn -0.1209 0.4762 -0.8710
vn 0.2475 -0.2593 0.9335
vn 0.1427 0.6960 0.7037
vn -0.9723 -0.1821 -0.1469
vn 0.0090 0.7569 0.6535
vn 0.0260 -0.6516 -0.7581
vn 0.2577 -0.6772 -0.6892
vn 0.3754 0.4172 0.8277
vn 0.7363 -0.6417 0.2150
vn 0.1780 0.2992 -0.9374
vn -0.7227 0.1602 0.6723
vn -0.5280 0.3272 -0.7837
vn 0.9798 -0.0189 -0.1989
usemtl Planets_Material.001
s 1
f 1/1/1 2/2/2 3/3/3
f 4/4/4 5/5/4 6/6/4
f 7/7/5 8/8/5 9/9/5
f 10/10/6 11/11/6 12/12/6
f 12/13/7 13/14/7 14/15/7
f 15/16/8 16/17/8 17/18/8
f 18/19/9 19/20/9 20/21/9
f 2/2/10 1/1/10 21/22/10
f 11/23/11 22/24/12 9/25/13
f 23/26/14 24/27/14 25/28/14
f 26/29/15 27/30/15 28/31/15
f 9/32/16 8/33/16 29/34/16
f 30/35/17 31/36/17 32/37/17
f 33/38/18 34/39/18 29/34/18
f 35/40/19 28/31/19 36/41/19
f 37/42/20 38/43/20 30/35/20
f 39/44/21 6/45/21 40/46/21
f 41/47/22 42/48/22 43/49/22
f 42/48/23 36/50/23 43/49/23
f 44/51/24 45/52/24 24/53/24
f 24/53/25 23/54/25 44/51/25
f 45/55/26 46/56/26 47/57/26
f 20/58/27 30/35/27 38/59/27
f 48/60/28 34/39/28 49/61/28
f 44/51/29 23/62/29 31/63/29
f 20/64/30 19/65/30 50/66/30
f 51/67/31 50/68/31 52/69/31
f 46/70/32 52/69/32 53/71/32
f 53/71/33 43/72/33 46/70/33
f 48/73/34 49/74/34 15/16/34
f 1/1/35 54/75/36 16/17/37
f 14/15/38 55/76/38 56/77/38
f 57/78/39 31/79/39 30/80/39
f 44/51/40 31/79/40 51/67/40
f 56/77/41 12/13/41 14/15/41
f 15/81/42 17/82/42 55/83/42
f 58/84/43 59/85/43 28/86/43
f 60/87/44 61/88/44 33/38/44
f 62/89/45 63/90/45 22/24/45
f 43/49/46 19/91/46 41/47/46
f 64/92/47 65/93/47 39/94/47
f 41/95/48 19/96/48 4/97/48
f 32/98/49 23/99/49 61/100/49
f 29/101/50 66/102/50 9/103/50
f 11/104/51 9/103/51 66/105/51
f 47/106/52 46/107/52 67/108/52
f 46/107/53 43/109/53 67/108/53
f 57/110/54 20/111/54 50/112/54
f 57/113/55 50/114/55 51/115/55
f 59/116/56 64/117/56 56/118/56
f 33/119/57 68/120/57 49/121/57
f 37/122/58 7/123/58 38/124/58
f 69/125/59 18/126/59 20/127/59
f 24/128/60 45/129/60 2/130/60
f 70/131/61 12/132/61 56/133/61
f 5/134/62 4/135/62 18/136/62
f 49/137/63 68/138/63 71/139/63
f 40/140/64 64/92/64 39/94/64
f 48/141/65 15/81/65 55/83/65
f 31/79/66 57/78/66 51/67/66
f 53/71/67 19/142/67 43/72/67
f 22/24/68 63/90/68 7/143/68
f 4/4/69 42/144/69 41/145/69
f 48/146/70 14/147/70 13/148/70
f 61/88/71 68/149/71 33/38/71
f 9/25/72 22/24/72 7/143/72
f 32/37/73 60/87/73 8/33/73
f 35/40/74 39/150/74 65/151/74
f 42/144/75 39/150/75 35/40/75
f 70/152/76 40/46/76 10/153/76
f 40/46/77 6/154/77 5/155/77
f 54/156/78 27/30/78 26/29/78
f 8/33/79 60/87/79 29/34/79
f 32/37/80 8/33/80 37/42/80
f 37/42/81 30/35/81 32/37/81
f 10/157/82 22/24/12 11/23/11
f 10/157/83 62/89/83 22/24/83
f 27/30/84 36/41/84 28/31/84
f 54/158/85 47/159/85 27/160/85
f 24/161/86 21/22/86 25/162/86
f 35/163/87 65/164/87 58/165/87
f 36/41/88 42/144/88 35/40/88
f 42/144/89 4/4/89 39/150/89
f 68/149/90 61/88/90 25/28/90
f 70/166/91 64/92/91 40/140/91
f 58/84/92 65/93/92 64/92/92
f 47/167/93 3/168/93 2/169/93
f 7/7/94 37/170/94 8/8/94
f 45/171/95 47/172/95 2/173/95
f 25/28/96 61/88/96 23/26/96
f 20/58/97 57/174/97 30/35/97
f 46/70/98 45/52/98 52/69/98
f 26/175/99 28/31/99 59/176/99
f 71/177/100 15/16/100 49/74/100
f 26/29/101 16/17/37 54/75/36
f 26/178/102 17/82/102 16/179/102
f 50/68/103 19/142/103 53/71/103
f 12/12/104 70/180/104 10/10/104
f 53/71/105 52/69/105 50/68/105
f 48/141/106 55/83/106 14/181/106
f 21/22/107 24/161/107 2/2/107
f 3/3/3 54/182/108 1/1/1
f 21/22/109 68/183/109 25/162/109
f 69/184/110 38/59/110 63/90/110
f 15/16/111 71/177/111 16/17/111
f 12/12/112 11/11/112 13/148/112
f 47/185/113 67/186/113 27/187/113
f 40/188/114 5/189/114 62/190/114
f 31/191/115 23/99/115 32/98/115
f 67/186/116 36/192/116 27/187/116
f 66/105/117 13/193/117 11/104/117
f 29/101/118 34/194/118 66/102/118
f 69/195/119 62/190/120 5/189/121
f 62/190/120 69/195/119 63/196/122
f 62/190/123 10/197/123 40/188/123
f 16/198/124 71/199/124 1/200/124
f 61/201/125 60/202/125 32/98/125
f 13/203/126 66/204/126 48/205/126
f 55/206/127 59/207/127 56/208/127
f 17/209/128 59/207/128 55/206/128
f 59/207/129 17/209/129 26/210/129
f 21/211/130 1/200/130 71/199/130
f 36/192/131 67/186/131 43/212/131
f 48/213/132 66/214/132 34/215/132
f 18/216/133 4/217/133 19/218/133
f 34/219/134 33/119/134 49/121/134
f 18/220/135 69/125/135 5/221/135
f 28/222/136 35/223/136 58/224/136
f 54/225/137 3/226/137 47/227/137
f 64/228/138 70/229/138 56/230/138
f 44/231/139 52/232/139 45/233/139
f 52/232/140 44/231/140 51/234/140
f 4/4/141 6/6/141 39/150/141
f 38/235/142 69/236/142 20/237/142
f 60/87/143 33/38/143 29/34/143
f 64/92/144 59/238/144 58/84/144
f 21/211/145 71/199/145 68/239/145
f 38/124/146 7/123/146 63/240/146
