# Blender v3.0.0 OBJ File: ''
# www.blender.org
mtllib asteroidC.mtl
o Meteor_3_Cube.015
v -0.373974 0.113468 -0.160407
v -0.401805 -0.125288 -0.162695
v -0.567398 0.001527 -0.103479
v 0.103176 -0.169380 0.524755
v 0.437035 0.024828 0.532037
v 0.185452 -0.015704 0.370198
v 0.547439 -0.046972 -0.165081
v 0.338094 -0.066292 -0.321521
v 0.363206 0.134938 -0.247107
v 0.580152 0.318487 0.152922
v 0.419094 0.341003 -0.098810
v 0.299194 0.548854 0.039545
v 0.258401 0.478227 -0.208705
v 0.087742 0.489275 -0.107949
v -0.240290 0.433358 -0.415354
v -0.319587 0.252677 -0.158503
v -0.323138 0.518831 -0.124890
v 0.190678 -0.240432 0.359580
v 0.076379 -0.507188 0.463058
v 0.400699 -0.596717 0.263550
v -0.481059 -0.040768 -0.507200
v 0.607178 0.243448 -0.078122
v -0.110397 -0.417301 -0.440113
v -0.298987 -0.197559 -0.276289
v -0.253918 -0.199529 -0.540022
v -0.502978 0.407660 0.134560
v -0.618929 0.051159 0.306138
v -0.502230 0.289433 0.482297
v 0.214409 0.078568 -0.359485
v 0.479674 -0.571335 -0.249472
v 0.109146 -0.391622 -0.252511
v 0.169519 -0.273678 -0.397022
v 0.054084 0.059692 -0.457873
v 0.107890 0.250461 -0.507719
v -0.263319 0.132815 0.517141
v -0.249077 -0.065983 0.297096
v 0.378263 -0.220687 -0.208657
v 0.634493 -0.332396 0.050534
v 0.084028 0.126122 0.496571
v 0.249079 0.184824 0.253182
v -0.042052 -0.303981 0.501196
v -0.161400 -0.132820 0.588197
v -0.327303 -0.472002 0.453823
v -0.116755 -0.356060 -0.202528
v -0.483279 -0.458965 -0.154942
v -0.365008 -0.365517 0.155113
v -0.442537 -0.121160 0.080673
v 0.058370 0.503642 -0.409754
v -0.089167 0.201847 -0.448698
v 0.080365 -0.350349 0.162621
v 0.015485 -0.441924 -0.069376
v -0.202454 -0.626436 -0.021000
v -0.184650 -0.626317 0.217022
v -0.621316 0.185429 0.008412
v -0.095627 0.500158 -0.117152
v 0.066289 0.593226 0.202493
v 0.251530 -0.517052 -0.047058
v -0.098480 0.202633 0.236819
v -0.236789 0.493457 0.216614
v 0.218182 -0.156930 -0.629732
v -0.045458 -0.121936 -0.516901
v 0.364472 0.069052 0.090565
v 0.689352 0.011834 0.061408
v 0.033640 0.413913 0.430331
v -0.096596 0.283492 0.649499
v 0.249868 0.335485 -0.276037
v -0.581350 -0.290619 0.341702
v -0.206459 0.054908 -0.483074
v 0.492010 -0.203130 0.303846
v 0.342013 0.505093 0.365146
v -0.332337 0.190188 -0.383407
vt 0.879063 0.397249
vt 0.878007 0.396814
vt 0.878511 0.396748
vt 0.882452 0.392167
vt 0.881620 0.394482
vt 0.881582 0.394457
vt 0.873168 0.361825
vt 0.872869 0.361950
vt 0.872944 0.361674
vt 0.871468 0.359157
vt 0.871352 0.359228
vt 0.871289 0.359030
vt 0.889130 0.345820
vt 0.888928 0.345848
vt 0.888763 0.346142
vt 0.880535 0.396604
vt 0.880316 0.395283
vt 0.880578 0.396064
vt 0.863504 0.377447
vt 0.863572 0.377532
vt 0.863397 0.377384
vt 0.878302 0.398082
vt 0.876700 0.395195
vt 0.876221 0.395382
vt 0.876178 0.394777
vt 0.876939 0.390134
vt 0.877215 0.391467
vt 0.877118 0.391799
vt 0.880515 0.394185
vt 0.881627 0.391256
vt 0.880697 0.391572
vt 0.875011 0.393360
vt 0.875018 0.392602
vt 0.875629 0.393255
vt 0.874629 0.391362
vt 0.875889 0.391180
vt 0.875303 0.391631
vt 0.876381 0.392961
vt 0.876766 0.391905
vt 0.880994 0.392651
vt 0.881733 0.392332
vt 0.874660 0.391646
vt 0.874263 0.391385
vt 0.870213 0.361692
vt 0.870559 0.361726
vt 0.870675 0.362064
vt 0.872044 0.361879
vt 0.872306 0.362043
vt 0.872065 0.362275
vt 0.872406 0.362055
vt 0.887347 0.343768
vt 0.886772 0.343480
vt 0.886633 0.345448
vt 0.886817 0.345563
vt 0.881221 0.378639
vt 0.881220 0.378639
vt 0.881187 0.378625
vt 0.874950 0.394570
vt 0.874749 0.396372
vt 0.877158 0.392143
vt 0.877224 0.392039
vt 0.887596 0.343944
vt 0.887557 0.344161
vt 0.889034 0.354822
vt 0.888955 0.354744
vt 0.889022 0.354762
vt 0.889008 0.344826
vt 0.888540 0.345140
vt 0.888677 0.344469
vt 0.888521 0.346850
vt 0.888435 0.346667
vt 0.888473 0.346636
vt 0.880630 0.396886
vt 0.879334 0.399106
vt 0.880143 0.394522
vt 0.888493 0.345825
vt 0.889095 0.345404
vt 0.889157 0.345152
vt 0.889296 0.344858
vt 0.889311 0.345151
vt 0.873726 0.358085
vt 0.873654 0.358660
vt 0.873557 0.357958
vt 0.866152 0.375969
vt 0.864204 0.380746
vt 0.864267 0.380608
vt 0.875798 0.392285
vt 0.876768 0.392057
vt 0.875903 0.395884
vt 0.875411 0.396022
vt 0.871877 0.361904
vt 0.866295 0.376273
vt 0.865109 0.378822
vt 0.865374 0.378935
vt 0.875934 0.390397
vt 0.875989 0.391204
vt 0.875634 0.391276
vt 0.878700 0.378901
vt 0.879055 0.378699
vt 0.879118 0.378959
vt 0.862929 0.392716
vt 0.862740 0.392996
vt 0.863545 0.393445
vt 0.863772 0.393505
vt 0.863787 0.393366
vt 0.860725 0.371454
vt 0.860612 0.371262
vt 0.860765 0.371186
vt 0.860595 0.371023
vt 0.872886 0.347372
vt 0.871209 0.347163
vt 0.872614 0.347369
vt 0.887919 0.346603
vt 0.887676 0.346562
vt 0.887820 0.346549
vt 0.859697 0.367022
vt 0.859795 0.367107
vt 0.859748 0.367304
vt 0.870907 0.360687
vt 0.870872 0.360922
vt 0.870626 0.360893
vt 0.869708 0.359293
vt 0.869652 0.359397
vt 0.869546 0.359216
vt 0.838774 0.372393
vt 0.839221 0.372627
vt 0.838060 0.372471
vt 0.890718 0.364779
vt 0.890694 0.364734
vt 0.890786 0.364734
vt 0.891360 0.364576
vt 0.890184 0.363758
vt 0.891428 0.364557
vt 0.865966 0.404014
vt 0.865891 0.404245
vt 0.865841 0.404170
vt 0.873654 0.359949
vt 0.873583 0.359947
vt 0.873629 0.359879
vt 0.865637 0.379114
vt 0.873637 0.357641
vt 0.888335 0.345302
vt 0.875944 0.395076
vt 0.881750 0.393231
vt 0.882691 0.392001
vt 0.870539 0.359141
vt 0.870473 0.359082
vt 0.870857 0.359152
vt 0.877167 0.392727
vt 0.881045 0.393821
vt 0.880417 0.393169
vt 0.870429 0.362315
vt 0.870829 0.362577
vt 0.870926 0.361766
vt 0.870903 0.361943
vt 0.880862 0.390980
vt 0.876548 0.396089
vt 0.879178 0.396064
vt 0.878783 0.395896
vt 0.879019 0.395739
vt 0.877793 0.398053
vt 0.878058 0.398492
vt 0.861036 0.373646
vt 0.860635 0.374007
vt 0.860609 0.373626
vt 0.865418 0.379210
vt 0.872212 0.363258
vt 0.872221 0.363316
vt 0.872125 0.363357
vt 0.873040 0.362205
vt 0.872130 0.359521
vt 0.871748 0.359440
vt 0.871991 0.359343
vt 0.874912 0.394353
vt 0.880937 0.389228
vt 0.880828 0.389341
vt 0.880027 0.396557
vt 0.873695 0.359005
vt 0.873776 0.358756
vt 0.871495 0.359106
vt 0.873487 0.357752
vt 0.879260 0.396490
vt 0.878375 0.398664
vt 0.875218 0.397034
vt 0.864704 0.390550
vt 0.867653 0.391316
vt 0.867398 0.391272
vt 0.879114 0.382607
vt 0.878858 0.382784
vt 0.878817 0.382198
vt 0.878733 0.378669
vt 0.867468 0.391773
vt 0.863855 0.393416
vt 0.862914 0.392949
vt 0.878500 0.382516
vt 0.878526 0.382139
vt 0.879050 0.382105
vt 0.881721 0.381776
vt 0.881582 0.382036
vt 0.881526 0.381605
vt 0.879528 0.377741
vt 0.879100 0.377834
vt 0.859741 0.368748
vt 0.859616 0.368826
vt 0.859555 0.368757
vt 0.887659 0.346837
vt 0.887712 0.346093
vt 0.887847 0.346522
vt 0.887446 0.346384
vt 0.887494 0.346476
vt 0.880517 0.383458
vt 0.867686 0.391911
vt 0.863642 0.391714
vt 0.863310 0.391720
vt 0.863701 0.391610
vt 0.840985 0.373535
vt 0.841315 0.373686
vt 0.841307 0.373783
vt 0.870563 0.360657
vt 0.837839 0.372314
vt 0.837908 0.372381
vt 0.855240 0.375673
vt 0.855006 0.375686
vt 0.855084 0.375398
vt 0.868566 0.361607
vt 0.868517 0.361203
vt 0.868713 0.361171
vt 0.863465 0.385740
vt 0.863277 0.385709
vt 0.863290 0.385646
vt 0.895953 0.377101
vt 0.896809 0.376088
vt 0.896870 0.376102
vt 0.895850 0.377042
vt 0.880823 0.390840
vt 0.881096 0.391286
vt 0.880847 0.391250
vt 0.866044 0.376095
vt 0.880670 0.383654
vt 0.869533 0.359436
vn -0.3058 0.0448 -0.9510
vn -0.4429 0.7425 0.5025
vn 0.5706 0.2213 -0.7909
vn 0.6736 0.6375 -0.3740
vn -0.0905 0.9617 -0.2587
vn -0.9596 0.0226 -0.2804
vn 0.5402 0.0930 0.8364
vn -0.9624 0.1098 0.2483
vn 0.3408 0.4865 -0.8045
vn -0.7987 -0.5870 -0.1321
vn -0.9244 0.3606 0.1246
vn 0.5271 0.2361 -0.8163
vn -0.3172 -0.6655 -0.6757
vn 0.5195 -0.3502 -0.7794
vn -0.5103 -0.6543 0.5581
vn 0.7402 0.2850 -0.6090
vn 0.8169 0.0746 0.5719
vn 0.0861 -0.4031 0.9111
vn -0.8914 0.3022 0.3379
vn 0.0006 -0.4214 -0.9069
vn -0.6844 -0.7102 0.1648
vn -0.9036 -0.1664 0.3948
vn 0.7808 -0.6184 0.0896
vn -0.3384 0.2813 -0.8980
vn -0.0974 -0.9644 0.2460
vn -0.4697 -0.7800 -0.4134
vn 0.6564 -0.7462 0.1110
vn -0.8277 -0.5577 0.0622
vn -0.8059 -0.5825 -0.1059
vn -0.0130 0.1342 -0.9909
vn -0.5087 0.2102 -0.8349
vn 0.0719 0.9473 -0.3122
vn -0.4219 -0.8740 -0.2412
vn -0.2227 -0.9050 -0.3625
vn -0.0435 0.9464 -0.3199
vn 0.0877 0.9621 -0.2581
vn 0.5417 0.3118 0.7806
vn -0.3031 0.4407 -0.8449
vn 0.1705 0.5521 0.8161
vn -0.0404 -0.2070 0.9775
vn 0.7484 0.2704 0.6056
vn 0.0075 -0.1802 0.9836
vn 0.2939 -0.3005 -0.9074
vn 0.5448 0.1901 -0.8167
vn 0.6871 0.2923 -0.6652
vn -0.6738 -0.4025 -0.6196
vn -0.4935 -0.8371 -0.2361
vn -0.6266 -0.7726 0.1028
vn -0.3109 -0.8512 0.4229
vn -0.2298 0.7805 0.5813
vn 0.0922 0.1564 -0.9834
vn 0.5746 -0.3775 -0.7262
vn 0.5758 -0.3789 -0.7245
vn 0.5731 -0.3754 -0.7284
vn 0.1973 -0.1450 0.9696
vn -0.6835 0.1503 -0.7143
vn 0.2510 0.9632 0.0964
vn 0.4157 -0.7346 0.5362
vn -0.2549 0.4085 -0.8764
vn 0.7659 0.2686 0.5842
vn -0.2258 0.9682 -0.1073
vn -0.2492 -0.8938 -0.3729
vn -0.0864 -0.8577 0.5069
vn 0.8492 -0.0167 -0.5278
vn 0.1729 -0.3478 0.9215
vn 0.0874 0.9954 0.0389
vn 0.0881 0.2639 -0.9605
vn 0.5188 0.1455 -0.8424
vn 0.7922 -0.5955 -0.1331
vn 0.0304 -0.6784 0.7340
vn 0.0621 0.2801 0.9580
vn 0.4108 -0.4048 0.8169
vn -0.5132 0.5482 0.6604
vn -0.9069 0.3812 0.1792
vn 0.7371 0.5145 -0.4381
vn 0.6791 -0.3098 -0.6655
vn 0.6086 0.2632 -0.7485
vn 0.4681 0.8551 -0.2230
vn 0.6845 -0.6660 0.2964
vn -0.1505 -0.5390 0.8287
vn -0.8153 -0.5302 -0.2326
vn -0.5794 -0.8097 -0.0930
vn -0.5935 0.7903 -0.1521
vn -0.9301 -0.3004 0.2112
vn 0.2459 0.1078 0.9633
vn 0.0290 0.2132 -0.9766
vn 0.2996 -0.3912 0.8702
vn -0.7921 0.5996 -0.1139
vn -0.6259 -0.7745 -0.0916
vn 0.5761 -0.3794 -0.7240
vn -0.9591 0.2304 -0.1644
vn 0.2112 -0.2892 -0.9337
vn -0.3089 -0.9464 -0.0944
vn -0.6050 -0.6687 0.4323
vn -0.3750 0.8774 0.2991
vn -0.2579 -0.0293 -0.9657
vn -0.4828 0.6124 -0.6260
vn -0.8320 0.0586 -0.5516
vn 0.6408 -0.6840 -0.3486
vn 0.6286 0.7774 0.0218
vn 0.7150 -0.6971 -0.0531
vn 0.0571 0.9975 0.0419
vn -0.6125 -0.7887 -0.0526
vn -0.4505 0.3639 -0.8152
vn 0.0103 0.2166 -0.9762
vn 0.8274 -0.1490 0.5414
vn -0.9362 0.3486 -0.0438
vn 0.7292 0.6173 -0.2954
vn -0.8305 -0.1472 -0.5372
vn 0.6802 0.7320 -0.0385
vn 0.4630 -0.7715 -0.4363
vn 0.0590 0.1097 0.9922
vn 0.6914 0.2743 -0.6683
vn 0.6954 0.2722 -0.6651
vn 0.6913 0.2741 -0.6686
vn 0.8415 0.0583 -0.5371
vn 0.9316 0.3435 -0.1187
vn 0.1815 0.6578 0.7310
vn 0.4383 -0.5556 0.7066
vn -0.9301 0.3640 -0.0484
vn -0.3133 -0.8210 -0.4774
vn 0.6994 0.2703 -0.6617
vn -0.3154 0.9420 -0.1145
vn 0.0799 0.9954 0.0538
vn -0.3463 0.9250 0.1563
vn -0.8465 0.5318 0.0249
vn -0.1334 0.3792 0.9157
vn 0.7272 0.3667 -0.5802
vn 0.8419 -0.1609 0.5152
vn -0.2409 -0.1812 -0.9535
vn 0.2146 -0.6646 0.7157
vn 0.4417 0.7746 0.4527
vn -0.8543 -0.4290 0.2934
vn -0.1052 0.7887 0.6057
vn 0.0529 -0.5681 -0.8212
vn 0.3436 -0.5961 -0.7257
vn 0.8302 0.1060 0.5473
vn 0.7882 -0.2408 0.5663
vn 0.2984 0.7216 -0.6247
vn -0.6446 -0.2565 0.7202
vn -0.1078 0.5227 -0.8457
vn 0.8550 -0.1203 -0.5045
usemtl Planets_Material.002
s 1
f 1/1/1 2/2/1 3/3/1
f 4/4/2 5/5/2 6/6/2
f 7/7/3 8/8/3 9/9/3
f 10/10/4 11/11/4 12/12/4
f 12/13/5 13/14/5 14/15/5
f 15/16/6 16/17/6 17/18/6
f 18/19/7 19/20/7 20/21/7
f 2/2/8 1/1/8 21/22/8
f 11/23/9 22/24/9 9/25/9
f 23/26/10 24/27/10 25/28/10
f 26/29/11 27/30/11 28/31/11
f 9/32/12 8/33/12 29/34/12
f 30/35/13 31/36/13 32/37/13
f 33/38/14 34/39/14 29/34/14
f 35/40/15 28/31/15 36/41/15
f 37/42/16 38/43/16 30/35/16
f 39/44/17 6/45/17 40/46/17
f 41/47/18 42/48/18 43/49/18
f 42/48/19 36/50/19 43/49/19
f 44/51/20 45/52/20 24/53/20
f 24/53/21 23/54/21 44/51/21
f 45/55/22 46/56/22 47/57/22
f 20/58/23 30/35/23 38/59/23
f 48/60/24 34/39/24 49/61/24
f 44/51/25 23/62/25 31/63/25
f 20/64/26 19/65/26 50/66/26
f 51/67/27 50/68/27 52/69/27
f 46/70/28 52/69/28 53/71/28
f 53/71/29 43/72/29 46/70/29
f 48/73/30 49/74/30 15/16/30
f 1/1/31 54/75/31 16/17/31
f 14/15/32 55/76/32 56/77/32
f 57/78/33 31/79/33 30/80/33
f 44/51/34 31/79/34 51/67/34
f 56/77/35 12/13/35 14/15/35
f 15/81/36 17/82/36 55/83/36
f 58/84/37 59/85/37 28/86/37
f 60/87/38 61/88/38 33/38/38
f 62/89/39 63/90/39 22/24/39
f 43/49/40 19/91/40 41/47/40
f 64/92/41 65/93/41 39/94/41
f 41/95/42 19/96/42 4/97/42
f 32/98/43 23/99/43 61/100/43
f 29/101/44 66/102/44 9/103/44
f 11/104/45 9/103/45 66/105/45
f 47/106/46 46/107/46 67/108/46
f 46/107/47 43/109/47 67/108/47
f 57/110/48 20/111/48 50/112/48
f 57/113/49 50/114/49 51/115/49
f 59/116/50 64/117/50 56/118/50
f 33/119/51 68/120/51 49/121/51
f 37/122/52 7/123/53 38/124/54
f 69/125/55 18/126/55 20/127/55
f 24/128/56 45/129/56 2/130/56
f 70/131/57 12/132/57 56/133/57
f 5/134/58 4/135/58 18/136/58
f 49/137/59 68/138/59 71/139/59
f 40/140/60 64/92/60 39/94/60
f 48/141/61 15/81/61 55/83/61
f 31/79/62 57/78/62 51/67/62
f 53/71/63 19/142/63 43/72/63
f 22/24/64 63/90/64 7/143/64
f 4/4/65 42/144/65 41/145/65
f 48/146/66 14/147/66 13/148/66
f 61/88/67 68/149/67 33/38/67
f 9/25/68 22/24/68 7/143/68
f 32/37/69 60/87/69 8/33/69
f 35/40/70 39/150/70 65/151/70
f 42/144/71 39/150/71 35/40/71
f 70/152/72 40/46/72 10/153/72
f 40/46/73 6/154/73 5/155/73
f 54/156/74 27/30/74 26/29/74
f 8/33/75 60/87/75 29/34/75
f 32/37/76 8/33/76 37/42/76
f 37/42/77 30/35/77 32/37/77
f 10/157/78 22/24/78 11/23/78
f 10/157/79 62/89/79 22/24/79
f 27/30/80 36/41/80 28/31/80
f 54/158/81 47/159/81 27/160/81
f 24/161/82 21/22/82 25/162/82
f 35/163/83 65/164/83 58/165/83
f 36/41/84 42/144/84 35/40/84
f 42/144/85 4/4/85 39/150/85
f 68/149/86 61/88/86 25/28/86
f 70/166/87 64/92/87 40/140/87
f 58/84/88 65/93/88 64/92/88
f 47/167/89 3/168/89 2/169/89
f 7/7/53 37/170/52 8/8/90
f 45/171/91 47/172/91 2/173/91
f 25/28/92 61/88/92 23/26/92
f 20/58/93 57/174/93 30/35/93
f 46/70/94 45/52/94 52/69/94
f 26/175/95 28/31/95 59/176/95
f 71/177/96 15/16/96 49/74/96
f 26/29/97 16/17/97 54/75/97
f 26/178/98 17/82/98 16/179/98
f 50/68/99 19/142/99 53/71/99
f 12/12/100 70/180/100 10/10/100
f 53/71/101 52/69/101 50/68/101
f 48/141/102 55/83/102 14/181/102
f 21/22/103 24/161/103 2/2/103
f 3/3/104 54/182/104 1/1/104
f 21/22/105 68/183/105 25/162/105
f 69/184/106 38/59/106 63/90/106
f 15/16/107 71/177/107 16/17/107
f 12/12/108 11/11/108 13/148/108
f 47/185/109 67/186/109 27/187/109
f 40/188/110 5/189/110 62/190/110
f 31/191/111 23/99/111 32/98/111
f 67/186/112 36/192/112 27/187/112
f 66/105/113 13/193/114 11/104/115
f 29/101/116 34/194/116 66/102/116
f 69/195/117 62/190/117 5/189/117
f 62/190/118 69/195/118 63/196/118
f 62/190/119 10/197/119 40/188/119
f 16/198/120 71/199/120 1/200/120
f 61/201/121 60/202/121 32/98/121
f 13/203/114 66/204/113 48/205/122
f 55/206/123 59/207/123 56/208/123
f 17/209/124 59/207/124 55/206/124
f 59/207/125 17/209/125 26/210/125
f 21/211/126 1/200/126 71/199/126
f 36/192/127 67/186/127 43/212/127
f 48/213/128 66/214/128 34/215/128
f 18/216/129 4/217/129 19/218/129
f 34/219/130 33/119/130 49/121/130
f 18/220/131 69/125/131 5/221/131
f 28/222/132 35/223/132 58/224/132
f 54/225/133 3/226/133 47/227/133
f 64/228/134 70/229/134 56/230/134
f 44/231/135 52/232/135 45/233/135
f 52/232/136 44/231/136 51/234/136
f 4/4/137 6/6/137 39/150/137
f 38/235/138 69/236/138 20/237/138
f 60/87/139 33/38/139 29/34/139
f 64/92/140 59/238/140 58/84/140
f 21/211/141 71/199/141 68/239/141
f 38/124/142 7/123/142 63/240/142
